HIERARCHY
ROOT Hips
{
	OFFSET 0.000000 0.000000 0.000000
	CHANNELS 6 Xposition Yposition Zposition Zrotation Yrotation Xrotation 
	JOINT LHipJoint
	{
		OFFSET 0.000000 0.000000 0.000000
		CHANNELS 3 Zrotation Yrotation Xrotation
		JOINT LeftUpLeg
		{
			OFFSET 1.363060 -1.794630 0.839290
			CHANNELS 3 Zrotation Yrotation Xrotation
			JOINT LeftLeg
			{
				OFFSET 2.448110 -6.726130 0.000000
				CHANNELS 3 Zrotation Yrotation Xrotation
				JOINT LeftFoot
				{
					OFFSET 2.562200 -7.039590 0.000000
					CHANNELS 3 Zrotation Yrotation Xrotation
					JOINT LeftToeBase
					{
						OFFSET 0.157640 -0.433110 2.322550
						CHANNELS 3 Zrotation Yrotation Xrotation
						End Site
						{
							OFFSET 0.000000 0.000000 0.000000
						}
					}
				}
			}
		}
	}
	JOINT RHipJoint
	{
		OFFSET 0.000000 0.000000 0.000000
		CHANNELS 3 Zrotation Yrotation Xrotation
		JOINT RightUpLeg
		{
			OFFSET -1.305520 -1.794630 0.839290
			CHANNELS 3 Zrotation Yrotation Xrotation
			JOINT RightLeg
			{
				OFFSET -2.542530 -6.985550 0.000000
				CHANNELS 3 Zrotation Yrotation Xrotation
				JOINT RightFoot
				{
					OFFSET -2.568260 -7.056230 0.000000
					CHANNELS 3 Zrotation Yrotation Xrotation
					JOINT RightToeBase
					{
						OFFSET -0.164730 -0.452590 2.363150
						CHANNELS 3 Zrotation Yrotation Xrotation
						End Site
						{
							OFFSET 0.000000 0.000000 0.000000
						}
					}
				}
			}
		}
	}
	JOINT LowerBack
	{
		OFFSET 0.000000 0.000000 0.000000
		CHANNELS 3 Zrotation Yrotation Xrotation
		JOINT Spine
		{
			OFFSET 0.028270 2.035590 -0.193380
			CHANNELS 3 Zrotation Yrotation Xrotation
			JOINT Spine1
			{
				OFFSET 0.056720 2.048850 -0.042750
				CHANNELS 3 Zrotation Yrotation Xrotation
				JOINT Neck
				{
					OFFSET 0.000000 0.000000 0.000000
					CHANNELS 3 Zrotation Yrotation Xrotation
					JOINT Neck1
					{
						OFFSET -0.054170 1.746240 0.172020
						CHANNELS 3 Zrotation Yrotation Xrotation
						JOINT Head
						{
							OFFSET 0.104070 1.761360 -0.123970
							CHANNELS 3 Zrotation Yrotation Xrotation
							End Site
							{
								OFFSET 0.000000 0.000000 0.000000
							}
						}
					}
				}
				JOINT LeftShoulder
				{
					OFFSET 0.000000 0.000000 0.000000
					CHANNELS 3 Zrotation Yrotation Xrotation
					JOINT LeftArm
					{
						OFFSET 3.362410 1.200890 -0.311210
						CHANNELS 3 Zrotation Yrotation Xrotation
						JOINT LeftForeArm
						{
							OFFSET 4.983000 -0.000000 -0.000000
							CHANNELS 3 Zrotation Yrotation Xrotation
							JOINT LeftHand
							{
								OFFSET 3.483560 -0.000000 -0.000000
								CHANNELS 3 Zrotation Yrotation Xrotation
								JOINT LeftFingerBase
								{
									OFFSET 0.000000 0.000000 0.000000
									CHANNELS 3 Zrotation Yrotation Xrotation
									JOINT LeftHandIndex1
									{
										OFFSET 0.715260 -0.000000 -0.000000
										CHANNELS 3 Zrotation Yrotation Xrotation
										End Site
										{
											OFFSET 0.000000 0.000000 0.000000
										}
									}
								}
								JOINT LThumb
								{
									OFFSET 0.000000 0.000000 0.000000
									CHANNELS 3 Zrotation Yrotation Xrotation
									End Site
									{
										OFFSET 0.000000 0.000000 0.000000
									}
								}
							}
						}
					}
				}
				JOINT RightShoulder
				{
					OFFSET 0.000000 0.000000 0.000000
					CHANNELS 3 Zrotation Yrotation Xrotation
					JOINT RightArm
					{
						OFFSET -3.136600 1.374050 -0.404650
						CHANNELS 3 Zrotation Yrotation Xrotation
						JOINT RightForeArm
						{
							OFFSET -5.241900 -0.000000 -0.000000
							CHANNELS 3 Zrotation Yrotation Xrotation
							JOINT RightHand
							{
								OFFSET -3.444170 -0.000000 -0.000000
								CHANNELS 3 Zrotation Yrotation Xrotation
								JOINT RightFingerBase
								{
									OFFSET 0.000000 0.000000 0.000000
									CHANNELS 3 Zrotation Yrotation Xrotation
									JOINT RightHandIndex1
									{
										OFFSET -0.622530 -0.000000 -0.000000
										CHANNELS 3 Zrotation Yrotation Xrotation
										End Site
										{
											OFFSET 0.000000 0.000000 0.000000
										}
									}
								}
								JOINT RThumb
								{
									OFFSET 0.000000 0.000000 0.000000
									CHANNELS 3 Zrotation Yrotation Xrotation
									End Site
									{
										OFFSET 0.000000 0.000000 0.000000
									}
								}
							}
						}
					}
				}
			}
		}
	}
}
MOTION
Frames: 7
Frame Time: 0.008333
0.868021 4.102096 -2.814469 -1.720329 5.059481 -61.774684 -0.965547 -2.028728 -2.385321 -8.834815 -2.698142 -67.698621 3.789018 12.920672 36.883520 39.179976 9.760754 -176.996549 0.063500 -1.625300 -4.471300 3.008719 1.432186 -0.159731 3.216735 -6.945060 -73.006589 -4.622504 -10.869449 37.528001 -42.337650 14.932845 176.175174 -3.970900 -12.121600 36.163500 -2.871732 -1.495724 58.616745 -1.107774 -3.529888 8.395398 3.029398 -2.265243 -9.626864 -6.289395 -3.763720 -5.620515 10.281866 -5.275659 8.973606 2.453700 -2.258300 5.088700 0.907764 6.627801 -1.217612 -70.237734 -41.028205 41.503581 60.184681 -59.599709 -33.128575 0.042288 -0.022203 -0.919562 -17.763261 -4.154066 1.324700 -7.125000 0.000000 0.000000 -31.753200 24.943900 18.258200 0.542111 -7.235202 -2.216311 70.738958 41.524641 46.441330 -70.573512 65.567650 -41.236385 1.348017 -0.626310 -6.283209 12.302045 -39.674970 -7.005700 7.125000 0.000000 0.000000 53.714000 -60.847900 -24.672300 
0.872237 4.112837 -2.796199 -1.726543 5.013497 -61.375368 -0.947449 -2.026808 -2.393937 -8.795371 -2.726750 -68.065281 3.758359 12.885404 36.753577 39.181229 9.731765 -177.082296 0.070000 -1.707300 -4.697300 3.001127 1.431340 -0.157856 3.280840 -6.996757 -73.355089 -4.613304 -10.849169 37.464452 -42.311306 14.796095 176.084601 -3.954000 -12.098900 36.082700 -2.888312 -1.535804 58.481018 -1.055817 -3.577237 8.405259 3.119670 -2.291836 -9.605836 -6.399652 -3.816536 -5.767422 10.356607 -5.319897 8.733084 2.484500 -2.287800 5.048000 0.912018 6.626980 -1.219692 -70.320185 -40.909198 41.054840 61.001343 -59.782866 -33.795318 0.028985 -0.057106 -1.027025 -18.423316 -3.531061 1.156800 -7.125000 0.000000 0.000000 -32.326700 25.473600 18.227200 0.542713 -7.239529 -2.216973 70.720304 41.645713 46.293109 -71.014989 65.636492 -41.567511 1.361085 -0.612228 -6.859752 12.009347 -39.839045 -6.835900 7.125000 0.000000 0.000000 53.669000 -61.028200 -24.873600 
0.875650 4.123879 -2.777527 -1.671976 5.178153 -60.928400 -0.939872 -2.025347 -2.395377 -8.971727 -2.847573 -68.426838 3.737605 12.869255 36.685645 39.180273 9.717089 -177.186981 0.070400 -1.711300 -4.708600 2.998658 1.433474 -0.156543 3.107873 -7.146889 -73.790168 -4.589923 -10.810961 37.337812 -42.281979 14.644364 175.959876 -3.985200 -12.140700 36.231500 -3.056314 -1.575468 58.240222 -1.047717 -3.715883 8.451198 3.260369 -2.360468 -9.526648 -6.581450 -3.828687 -5.999287 10.536802 -5.302830 8.570447 2.563200 -2.278800 5.043000 0.914392 6.634047 -1.221363 -70.344216 -40.822479 40.523177 61.741426 -59.938272 -34.408895 0.022585 -0.083697 -1.293103 -18.954260 -3.079954 1.027700 -7.125000 0.000000 0.000000 -32.778900 25.850400 18.229300 0.542188 -7.237506 -2.215653 70.747138 41.799449 46.202836 -71.493937 65.711287 -41.927250 1.369645 -0.614145 -7.302752 10.678912 -40.060589 -6.000100 7.125000 0.000000 0.000000 52.755200 -61.493000 -24.884000 
0.878160 4.131809 -2.759559 -1.662136 5.258980 -60.515913 -0.927409 -2.024277 -2.399295 -9.038623 -2.964333 -68.820818 3.710542 12.842542 36.583099 39.178201 9.728520 -177.364683 0.078500 -1.807200 -4.973200 2.993041 1.433702 -0.155418 3.061752 -7.261110 -74.269255 -4.554923 -10.759788 37.162679 -42.264302 14.549760 175.838041 -4.016400 -12.182200 36.379700 -3.078359 -1.667575 58.053193 -1.083123 -3.844071 8.451458 3.279247 -2.418673 -9.518191 -6.647388 -3.843953 -6.189017 10.646096 -5.306565 8.529011 2.602900 -2.274900 5.064800 0.914769 6.636193 -1.223485 -70.256660 -40.693967 40.086120 62.434674 -60.079475 -34.975592 0.021606 -0.100838 -1.695590 -19.244517 -2.768116 0.929300 -7.125000 0.000000 0.000000 -33.048200 26.115600 18.186000 0.540090 -7.233736 -2.216368 70.821325 41.837751 46.071944 -71.999537 65.779721 -42.306294 1.383145 -0.607865 -7.704778 10.003975 -40.288671 -5.584100 7.125000 0.000000 0.000000 52.447300 -61.810700 -25.081600 
0.879063 4.136628 -2.741188 -1.583284 5.316583 -60.081660 -0.909598 -2.022102 -2.404868 -9.105623 -3.029310 -69.293355 3.673479 12.801865 36.436955 39.175835 9.737837 -177.603325 0.089400 -1.928500 -5.308200 2.984113 1.433603 -0.155203 3.018836 -7.250883 -74.834027 -4.509210 -10.693487 36.938131 -42.250805 14.482044 175.755462 -4.027300 -12.196600 36.431200 -3.124359 -1.677410 57.789831 -1.126510 -3.886224 8.443335 3.262978 -2.434935 -9.511834 -6.634801 -3.890587 -6.209104 10.675815 -5.366822 8.383242 2.602200 -2.307900 5.029400 0.917203 6.630520 -1.225748 -70.222396 -40.570258 39.847237 63.117373 -60.219486 -35.517119 0.021171 -0.114448 -2.032210 -19.413512 -2.526604 0.847800 -7.125000 0.000000 0.000000 -33.224200 26.326000 18.118600 0.537527 -7.235132 -2.219046 70.859650 41.783456 45.837688 -72.574424 65.848854 -42.738496 1.411454 -0.566903 -8.054783 11.821258 -40.525147 -6.787900 7.125000 0.000000 0.000000 54.437700 -61.537900 -26.009800 
0.878260 4.139539 -2.723320 -1.512472 5.318203 -59.683548 -0.889921 -2.019914 -2.412798 -9.110767 -3.045071 -69.732156 3.636995 12.758315 36.283269 39.175382 9.728533 -177.757203 0.095300 -1.991200 -5.481200 2.973705 1.433518 -0.155464 3.022744 -7.193503 -75.332569 -4.476508 -10.643189 36.772194 -42.235455 14.409981 175.720873 -4.038500 -12.211500 36.484400 -3.165575 -1.650556 57.478525 -1.131064 -3.870394 8.484553 3.266221 -2.429330 -9.437818 -6.693418 -3.946847 -6.122781 10.697367 -5.432460 8.061590 2.609000 -2.356800 4.927000 0.921462 6.623260 -1.227020 -70.300570 -40.547467 39.701428 63.699538 -60.336775 -35.975005 0.017895 -0.125909 -2.284600 -19.547633 -2.283514 0.763300 -7.125000 0.000000 0.000000 -33.378200 26.539000 18.028700 0.536905 -7.243555 -2.223402 70.847195 41.771361 45.550130 -73.004332 65.888738 -43.058930 1.417450 -0.570275 -8.304194 10.450771 -40.458670 -5.878200 7.125000 0.000000 0.000000 53.095900 -61.832800 -25.519700 
0.876152 4.144558 -2.710270 -1.491728 5.214015 -59.505787 -0.874862 -2.017308 -2.420098 -9.003866 -2.967079 -69.915193 3.615428 12.727042 36.179961 39.175720 9.732057 -177.831067 0.099500 -2.034600 -5.601400 2.966591 1.432025 -0.155245 3.144424 -7.166645 -75.511222 -4.468815 -10.630073 36.729039 -42.230815 14.383159 175.678467 -4.044600 -12.219600 36.513200 -3.174218 -1.639251 57.406111 -1.128648 -3.861694 8.538961 3.259205 -2.429703 -9.365497 -6.707162 -3.961602 -6.072113 10.703344 -5.445741 7.754562 2.607400 -2.378000 4.830200 0.921915 6.614054 -1.228008 -70.234283 -40.543237 39.454572 64.236329 -60.437435 -36.408456 0.015845 -0.137834 -2.568550 -19.697823 -2.035205 0.676100 -7.125000 0.000000 0.000000 -33.545200 26.755200 17.943300 0.534789 -7.254330 -2.228299 71.020337 41.794257 45.402559 -73.317341 65.924723 -43.292733 1.428019 -0.566362 -8.420705 10.221833 -40.481465 -5.725300 7.125000 0.000000 0.000000 52.913800 -61.908500 -25.497100 
